<svg xmlns="http://www.w3.org/2000/svg" version="1.1" xmlns:xlink="http://www.w3.org/1999/xlink" xmlns:svgjs="http://svgjs.dev/svgjs" width="128" height="128" viewBox="0 0 128 128"><g transform="matrix(0.8046875,0,0,0.8046875,12.41184074821259,12.814873242367177)"><svg viewBox="0 0 98 98" data-background-color="#ffffff" preserveAspectRatio="xMidYMid meet" height="127" width="128" xmlns="http://www.w3.org/2000/svg" xmlns:xlink="http://www.w3.org/1999/xlink"><g id="tight-bounds" transform="matrix(1,0,0,1,0.08387967645792571,0.08387967645792571)"><svg viewBox="0 0 97.83224064708413 97.83224064708413" height="97.83224064708413" width="97.83224064708413"><g><svg></svg></g><g><svg viewBox="0 0 97.83224064708413 97.83224064708413" height="97.83224064708413" width="97.83224064708413"><g><path d="M0 48.916c0-27.016 21.9-48.916 48.916-48.916 27.016 0 48.916 21.9 48.916 48.916 0 27.016-21.9 48.916-48.916 48.916-27.016 0-48.916-21.9-48.916-48.916zM48.916 93.244c24.481 0 44.328-19.846 44.328-44.328 0-24.481-19.846-44.328-44.328-44.327-24.481 0-44.328 19.846-44.327 44.327 0 24.481 19.846 44.328 44.327 44.328z" data-fill-palette-color="tertiary" fill="#89939e" stroke="transparent"></path><ellipse rx="46.959475510600384" ry="46.959475510600384" cx="48.91612032354207" cy="48.91612032354207" fill="#89939e" stroke="transparent" stroke-width="0" fill-opacity="1" data-fill-palette-color="tertiary"></ellipse></g><g transform="matrix(1,0,0,1,27.715726989168196,23.475393915029336)"><svg viewBox="0 0 42.40078666874774 50.88145281702546" height="50.88145281702546" width="42.40078666874774"><g><svg viewBox="0 0 42.40078666874774 50.88145281702546" height="50.88145281702546" width="42.40078666874774"><g><svg viewBox="0 0 42.40078666874774 50.88145281702546" height="50.88145281702546" width="42.40078666874774"><g id="textblocktransform"><svg viewBox="0 0 42.40078666874774 50.88145281702546" height="50.88145281702546" width="42.40078666874774" id="textblock"><g><svg viewBox="0 0 42.40078666874774 50.88145281702546" height="50.88145281702546" width="42.40078666874774"><g><svg viewBox="0 0 42.40078666874774 50.88145281702546" height="50.88145281702546" width="42.40078666874774"><g><svg xmlns="http://www.w3.org/2000/svg" xmlns:xlink="http://www.w3.org/1999/xlink" version="1.0" x="0" y="0" viewBox="16.667 10 66.666 80" enable-background="new 0 0 100 100" xml:space="preserve" height="50.88145281702546" width="42.40078666874774" class="icon-icon-0" data-fill-palette-color="quaternary" id="icon-0"><path d="M30 10c-7.363 0-13.333 5.97-13.333 13.333v43.418c2.793-2.115 6.233-3.418 10-3.418h56.666V10H30zM56.667 43.333h-20v-6.666h20V43.333zM70 30H36.667v-6.667H70V30z" fill="#ffffff" data-fill-palette-color="quaternary"></path><path d="M83.333 70H26.667c-5.521 0-10 4.479-10 10s4.479 10 10 10h56.666C77.81 84.473 77.813 75.521 83.333 70z" fill="#ffffff" data-fill-palette-color="quaternary"></path></svg></g></svg></g></svg></g></svg></g></svg></g><g></g></svg></g></svg></g></svg></g><defs></defs></svg><rect width="97.83224064708413" height="97.83224064708413" fill="none" stroke="none" visibility="hidden"></rect></g></svg></g></svg>